<?xml version="1.0" encoding="UTF-8"?>
<!DOCTYPE svg PUBLIC "-//W3C//DTD SVG 1.1//EN" "http://www.w3.org/Graphics/SVG/1.1/DTD/svg11.dtd">
<!-- Creator: CorelDRAW 2021.5 -->
<svg xmlns="http://www.w3.org/2000/svg" xml:space="preserve" width="4.62604in" height="2.00351in" version="1.1" style="shape-rendering:geometricPrecision; text-rendering:geometricPrecision; image-rendering:optimizeQuality; fill-rule:evenodd; clip-rule:evenodd"
viewBox="0 0 4052.9 1755.29"
 xmlns:xlink="http://www.w3.org/1999/xlink"
 xmlns:xodm="http://www.corel.com/coreldraw/odm/2003">
 <defs>
  <style type="text/css">
   <![CDATA[
    .fil0 {fill:black;fill-rule:nonzero}
    .fil1 {fill:#006760;fill-rule:nonzero}
   ]]>
  </style>
 </defs>
 <g id="Layer_x0020_1">
  <metadata id="CorelCorpID_0Corel-Layer"/>
  <g id="_1742399722672">
   <path class="fil0" d="M95.93 1238.38c-14.46,0 -28.18,-9.44 -34.18,-25.18 -40.98,-107.69 -61.75,-222.03 -61.75,-339.92 0,-22.76 16.6,-41.23 37.09,-41.23 20.47,0 37.08,18.46 37.08,41.23 0,106.78 18.81,210.34 55.9,307.8 7.98,20.98 -0.85,45.17 -19.7,54.05 -4.72,2.22 -9.62,3.25 -14.44,3.25z"/>
   <path class="fil0" d="M78.47 641c-4.05,0 -8.15,-0.75 -12.2,-2.3 -19.33,-7.49 -29.55,-30.98 -22.83,-52.49 109.75,-350.64 407.98,-586.21 742.12,-586.21 20.49,0 37.09,18.46 37.09,41.21 0,22.78 -16.6,41.23 -37.09,41.23 -302.61,0 -572.69,213.34 -672.08,530.88 -5.32,17.01 -19.68,27.69 -35.01,27.69z"/>
   <path class="fil0" d="M191.16 995.66c-18.48,0 -34.49,-15.37 -36.76,-36.28 -3.11,-28.39 -4.68,-57.35 -4.68,-86.1 0,-250.76 121.23,-485 316.4,-611.29 5.86,-3.8 12.29,-5.6 18.62,-5.6 12.77,0 25.19,7.34 32.09,20.5 10.31,19.67 4.3,44.91 -13.4,56.36 -172.42,111.58 -279.54,318.51 -279.54,540.03 0,25.45 1.39,51.05 4.14,76.17 2.47,22.58 -12.01,43.14 -32.33,45.89 -1.53,0.2 -3.04,0.32 -4.53,0.32z"/>
   <path class="fil0" d="M880.73 257.71c-31.12,-5.85 -62.91,-8.83 -95.17,-8.83 -27.2,0 -54.52,2.19 -81.23,6.48 -1.8,0.29 -3.59,0.43 -5.35,0.43 -18.13,0 -33.99,-14.79 -36.66,-35.33 -2.94,-22.53 11.11,-43.44 31.38,-46.72 30.22,-4.85 61.12,-7.32 91.87,-7.32 32.18,0 63.96,2.62 95.17,7.77l0 83.5z"/>
   <path class="fil0" d="M823.91 1165.12c-19.84,0 -36.29,-17.45 -37.04,-39.69 -2.68,-79.48 -12.87,-156.41 -30.26,-228.66 -5.29,-21.99 6.44,-44.59 26.23,-50.48 3.2,-0.95 6.43,-1.4 9.6,-1.4 16.37,0 31.36,12.14 35.81,30.57 18.83,78.19 29.84,161.25 32.74,246.89 0.77,22.73 -15.2,41.88 -35.67,42.75l-1.41 0.02z"/>
   <path class="fil0" d="M737.77 1746.58c-4.59,0 -9.25,-0.96 -13.77,-2.96 -19.01,-8.48 -28.26,-32.44 -20.65,-53.61 49.2,-136.66 79.94,-283.26 88.89,-423.94 1.38,-21.71 17.6,-38.33 36.94,-38.33 0.88,0 1.77,0.03 2.67,0.11 20.43,1.6 35.81,21.32 34.37,44.05 -9.49,149.05 -41.99,304.24 -94.01,448.77 -5.81,16.1 -19.73,25.9 -34.44,25.9z"/>
   <path class="fil0" d="M199.93 1432.63c-3.38,0 -6.81,-0.52 -10.23,-1.6 -19.68,-6.3 -31.07,-29.11 -25.43,-51 20.38,-79.09 26.15,-166.15 16.64,-251.79 -2.54,-22.59 11.92,-43.16 32.24,-45.97 1.55,-0.2 3.08,-0.31 4.59,-0.31 18.44,0 34.44,15.3 36.77,36.17 10.73,96.54 4.18,194.96 -18.95,284.64 -4.67,18.08 -19.5,29.87 -35.62,29.87z"/>
   <path class="fil0" d="M332 914.5c-20.49,0 -37.09,-18.46 -37.09,-41.22 0,-300.76 220.11,-545.43 490.64,-545.43 16.8,0 33.74,0.96 50.36,2.85 20.37,2.29 35.22,22.54 33.13,45.19 -1.95,21.22 -18.04,37.04 -36.85,37.04 -1.26,0 -2.54,-0.07 -3.81,-0.23 -14.12,-1.59 -28.53,-2.4 -42.83,-2.4 -229.65,0 -416.47,207.7 -416.47,462.98 0,22.76 -16.6,41.22 -37.08,41.22z"/>
   <path class="fil0" d="M320.4 1566.35c-4.31,0 -8.71,-0.84 -13.01,-2.62 -19.17,-8 -28.89,-31.77 -21.71,-53.1 30.11,-89.25 45.38,-183.32 45.38,-279.62 0,-62.94 -6.62,-125.57 -19.66,-186.18 -4.77,-22.16 7.51,-44.41 27.43,-49.68 2.9,-0.79 5.81,-1.15 8.67,-1.15 16.75,0 31.95,12.72 36.02,31.63 14.41,66.89 21.71,136 21.71,205.38 0,106.2 -16.84,210.01 -50.08,308.57 -5.58,16.56 -19.72,26.77 -34.73,26.77z"/>
   <path class="fil0" d="M518.75 759.98c-5.79,0 -11.66,-1.51 -17.14,-4.7 -18.15,-10.53 -25.19,-35.43 -15.69,-55.6 58.5,-124.6 173.32,-201.97 299.65,-201.97 32.54,0 64.55,5.17 95.17,15.15l0 86.99c-30.06,-12.92 -62.27,-19.7 -95.17,-19.7 -98.61,0 -188.24,60.41 -233.92,157.66 -6.61,14.11 -19.53,22.17 -32.9,22.17z"/>
   <path class="fil0" d="M532.17 1312.74l-0.1 0c-20.45,0 -37.03,-18.38 -37.09,-41.12 -0.23,-117.91 -14.6,-235.09 -42.78,-348.26 -5.45,-21.95 6.13,-44.64 25.88,-50.73 3.31,-1.01 6.64,-1.49 9.9,-1.49 16.28,0 31.18,11.98 35.73,30.25 29.9,120.26 45.19,244.78 45.45,370.03 0.05,22.78 -16.52,41.28 -36.99,41.32z"/>
   <path class="fil0" d="M461.61 1663.75c-5.13,0 -10.34,-1.17 -15.31,-3.7 -18.66,-9.4 -26.9,-33.85 -18.43,-54.59 24.3,-59.48 41.43,-122.25 50.92,-186.55 2.98,-20.21 18.69,-34.58 36.55,-34.58 2,0 4.01,0.18 6.04,0.55 20.21,3.71 33.9,24.92 30.59,47.37 -10.55,71.47 -29.59,141.23 -56.58,207.31 -6.22,15.2 -19.68,24.19 -33.78,24.19z"/>
   <path class="fil0" d="M592.27 1718.52c-5.04,0 -10.17,-1.14 -15.08,-3.56 -18.7,-9.29 -27.11,-33.64 -18.77,-54.43 17.41,-43.47 32.27,-88.67 44.16,-134.35 4.7,-18.04 19.53,-29.77 35.61,-29.77 3.42,0 6.88,0.52 10.32,1.62 19.67,6.33 31.01,29.18 25.32,51.05 -12.83,49.31 -28.87,98.1 -47.68,145.01 -6.14,15.34 -19.7,24.43 -33.88,24.43z"/>
   <path class="fil0" d="M662.49 1449.93c-1.85,0 -3.71,-0.12 -5.59,-0.45 -20.26,-3.41 -34.19,-24.41 -31.14,-46.92 8.76,-64.54 11.32,-130.57 7.56,-196.31 -1.77,-31.32 -5.01,-62.79 -9.61,-93.63 -3.37,-22.46 10.3,-43.7 30.51,-47.42 2.05,-0.38 4.09,-0.57 6.11,-0.57 17.78,0 33.53,14.3 36.53,34.48 5.02,33.58 8.55,67.86 10.48,101.92 4.08,71.58 1.31,143.53 -8.24,213.84 -2.78,20.43 -18.59,35.06 -36.62,35.06z"/>
   <path class="fil0" d="M880.73 802.75c-23.82,-38.27 -54.94,-63.02 -95.17,-63.02 -66.24,0 -120.14,59.92 -120.14,133.55 0,2.49 0.07,4.98 0.18,7.45 1.14,22.73 -14.49,42.18 -34.94,43.46 -0.71,0.04 -1.4,0.07 -2.09,0.07 -19.73,0 -35.91,-16.96 -37.01,-38.92 -0.19,-3.98 -0.29,-8.02 -0.29,-12.06 0,-119.1 87.15,-215.99 194.29,-215.99 36.42,0 67.98,11.04 95.17,30.48l0 114.99z"/>
   <path class="fil0" d="M880.73 1517.45c-0.7,-4.54 -0.72,-9.24 0,-13.91l0 13.91z"/>
  </g>
  <path class="fil1" d="M1520.23 696.73l-168.7 0 0 -296.84 -228.62 0 0 296.84 -168.7 0 0 -670.19 168.7 0 0 245.21 228.62 0 0 -245.21 168.7 0 0 670.19zm66.53 0l226.63 -670.19 183.76 0 226.63 670.19 -173.16 0 -41.64 -135.51 -212.34 0 -41.48 135.51 -168.4 0zm385.03 -258.12l-68.98 -222.32 -68.99 222.32 137.97 0zm916.18 -76.36c0,62.53 -13.68,118.31 -40.87,167.78 -27.35,49.32 -61.92,87.12 -103.56,113.55 -34.72,22.59 -72.68,37.03 -113.54,43.48 -41.03,6.45 -84.51,9.68 -130.75,9.68l-209.57 0 0 -670.19 207.88 0c47.02,0 91.11,3.07 132.14,9.06 41.17,5.99 79.74,20.43 115.69,43.63 44.1,28.12 78.82,66.22 104.33,114 25.5,47.94 38.26,104.33 38.26,169.01zm-173.31 -1.53c0,-43.94 -7.53,-81.58 -22.59,-112.93 -15.06,-31.34 -38.41,-55.77 -69.76,-73.44 -22.59,-12.6 -46.55,-19.51 -71.44,-20.59 -24.89,-1.23 -54.69,-1.84 -89.42,-1.84l-3.07 0 0 418.53 3.07 0c37.64,0 69.45,-0.62 95.26,-2 25.81,-1.38 50.4,-9.37 73.75,-24.12 27.5,-17.36 48.4,-41.18 62.69,-71.75 14.29,-30.58 21.51,-67.76 21.51,-111.85zm607.81 336.02l-362.29 0 0 -117.08 96.8 0 0 -436.04 -96.8 0 0 -117.07 362.29 0 0 117.07 -96.8 0 0 436.04 96.8 0 0 117.08zm730.42 0l-205.58 0 -186.52 -246.14 -59.62 0 0 246.14 -167.78 0 0 -670.19 269.64 0c37.18,0 69.6,2.3 97.26,6.91 27.66,4.76 53.16,14.44 76.51,29.04 23.97,15.36 43.02,34.72 57.15,58.23 14.13,23.51 21.2,53.47 21.2,89.73 0,51.32 -11.52,92.8 -34.72,124.76 -23.2,31.96 -54.08,57.31 -92.95,76.21l225.4 285.32zm-271.03 -465.54c0,-16.9 -3.23,-31.34 -9.68,-43.48 -6.45,-12.14 -17.05,-21.66 -31.96,-28.27 -10.45,-4.45 -22.12,-7.22 -35.03,-8.45 -12.91,-1.23 -28.88,-1.85 -47.94,-1.85l-56.08 0 0 180.68 47.94 0c23.35,0 43.17,-1.38 59.46,-4.3 16.29,-2.77 30.12,-8.91 41.48,-18.28 10.75,-8.3 18.74,-18.44 23.97,-30.12 5.22,-11.68 7.83,-27.04 7.83,-45.94z"/>
  <path class="fil1" d="M1573.7 1755.29l-205.58 0 -186.52 -246.14 -59.62 0 0 246.14 -167.78 0 0 -670.19 269.64 0c37.18,0 69.6,2.3 97.26,6.91 27.66,4.76 53.16,14.44 76.51,29.04 23.97,15.36 43.02,34.72 57.15,58.23 14.13,23.51 21.2,53.47 21.2,89.73 0,51.32 -11.52,92.8 -34.72,124.76 -23.2,31.96 -54.08,57.31 -92.95,76.21l225.4 285.32zm-271.03 -465.54c0,-16.9 -3.23,-31.34 -9.68,-43.48 -6.45,-12.14 -17.05,-21.66 -31.96,-28.27 -10.45,-4.45 -22.12,-7.22 -35.03,-8.45 -12.91,-1.23 -28.88,-1.85 -47.94,-1.85l-56.08 0 0 180.68 47.94 0c23.35,0 43.17,-1.38 59.46,-4.3 16.29,-2.77 30.12,-8.91 41.48,-18.28 10.75,-8.3 18.74,-18.44 23.97,-30.12 5.22,-11.68 7.83,-27.04 7.83,-45.94zm320.81 465.54l0 -670.19 453.56 0 0 128.14 -285.78 0 0 117.07 263.65 0 0 128.14 -263.65 0 0 168.7 285.78 0 0 128.14 -453.56 0zm1154.33 0l-202.96 0 -182.68 -272.41 -32.88 45.79 0 226.63 -168.7 0 0 -670.19 168.7 0 0 298.68 214.33 -298.68 194.05 0 -238.61 310.97 248.75 359.22zm-17.21 0l226.63 -670.19 183.76 0 226.63 670.19 -173.16 0 -41.64 -135.51 -212.34 0 -41.48 135.51 -168.4 0zm385.03 -258.12l-68.98 -222.32 -68.99 222.32 137.97 0zm893.14 258.12l-162.09 0 -259.2 -467.23 0 467.23 -153.95 0 0 -670.19 206.81 0 214.49 383.96 0 -383.96 153.95 0 0 670.19z"/>
  <path class="fil0" d="M1005.53 937.62l0 -99.29 32.15 0c12.18,0 20.11,0.49 23.8,1.48 5.69,1.5 10.45,4.74 14.28,9.73 3.84,4.99 5.76,11.44 5.76,19.34 0,6.1 -1.11,11.21 -3.31,15.37 -2.22,4.16 -5.02,7.42 -8.41,9.8 -3.4,2.36 -6.86,3.93 -10.38,4.69 -4.78,0.95 -11.7,1.43 -20.75,1.43l-13.04 0 0 37.44 -20.11 0zm20.11 -82.51l0 28.29 10.93 0c7.88,0 13.13,-0.53 15.78,-1.57 2.66,-1.04 4.74,-2.66 6.24,-4.9 1.5,-2.22 2.26,-4.78 2.26,-7.74 0,-3.63 -1.06,-6.61 -3.17,-8.97 -2.12,-2.36 -4.78,-3.84 -8.04,-4.44 -2.38,-0.44 -7.16,-0.67 -14.37,-0.67l-9.64 0zm136.82 82.51l-23.34 -99.29 20.66 0 14.77 68.21 18.12 -68.21 23.9 0 17.33 69.36 15.11 -69.36 20.18 0 -23.92 99.29 -21.47 0 -19.58 -74.24 -19.71 74.24 -22.05 0zm205.88 0l0 -99.29 20.11 0 0 99.29 -20.11 0zm90.02 0l0 -99.29 32.15 0c12.18,0 20.11,0.49 23.8,1.48 5.69,1.5 10.45,4.74 14.28,9.73 3.84,4.99 5.76,11.44 5.76,19.34 0,6.1 -1.11,11.21 -3.31,15.37 -2.22,4.16 -5.02,7.42 -8.41,9.8 -3.4,2.36 -6.86,3.93 -10.38,4.69 -4.78,0.95 -11.7,1.43 -20.75,1.43l-13.04 0 0 37.44 -20.11 0zm20.11 -82.51l0 28.29 10.93 0c7.88,0 13.13,-0.53 15.78,-1.57 2.66,-1.04 4.74,-2.66 6.24,-4.9 1.5,-2.22 2.26,-4.78 2.26,-7.74 0,-3.63 -1.06,-6.61 -3.17,-8.97 -2.12,-2.36 -4.78,-3.84 -8.04,-4.44 -2.38,-0.44 -7.16,-0.67 -14.37,-0.67l-9.64 0zm123.19 82.51l0 -99.29 19.46 0 40.86 66.54 0 -66.54 18.58 0 0 99.29 -20.08 0 -40.24 -65.27 0 65.27 -18.58 0zm150.94 -99.29l20.11 0 0 53.8c0,8.55 0.26,14.08 0.74,16.59 0.86,4.07 2.87,7.35 6.05,9.8 3.21,2.47 7.58,3.7 13.13,3.7 5.62,0 9.87,-1.16 12.74,-3.49 2.86,-2.34 4.57,-5.18 5.15,-8.57 0.58,-3.4 0.88,-9.02 0.88,-16.87l0 -54.96 20.11 0 0 52.21c0,11.92 -0.53,20.36 -1.62,25.28 -1.09,4.93 -3.07,9.09 -5.99,12.48 -2.89,3.4 -6.77,6.08 -11.62,8.09 -4.88,2.01 -11.21,3.03 -19.04,3.03 -9.45,0 -16.62,-1.09 -21.5,-3.28 -4.88,-2.19 -8.74,-5.04 -11.58,-8.55 -2.84,-3.51 -4.69,-7.16 -5.59,-11.02 -1.31,-5.69 -1.96,-14.1 -1.96,-25.22l0 -53.02zm184.2 67.12l19.55 -1.94c1.18,6.54 3.54,11.32 7.12,14.4 3.58,3.08 8.41,4.6 14.49,4.6 6.43,0 11.28,-1.37 14.54,-4.09 3.26,-2.73 4.9,-5.92 4.9,-9.57 0,-2.36 -0.69,-4.35 -2.06,-6.01 -1.36,-1.64 -3.77,-3.07 -7.19,-4.27 -2.34,-0.83 -7.65,-2.27 -15.97,-4.35 -10.7,-2.68 -18.21,-5.96 -22.53,-9.87 -6.08,-5.48 -9.11,-12.16 -9.11,-20.04 0,-5.06 1.43,-9.82 4.27,-14.24 2.87,-4.42 6.98,-7.77 12.37,-10.08 5.38,-2.31 11.86,-3.47 19.48,-3.47 12.41,0 21.77,2.75 28.04,8.27 6.28,5.53 9.57,12.87 9.89,22.1l-20.11 0.69c-0.86,-5.13 -2.68,-8.81 -5.48,-11.05 -2.8,-2.24 -7,-3.37 -12.6,-3.37 -5.78,0 -10.31,1.2 -13.57,3.6 -2.1,1.55 -3.17,3.6 -3.17,6.19 0,2.36 0.99,4.37 2.98,6.03 2.52,2.15 8.64,4.37 18.37,6.68 9.73,2.29 16.92,4.69 21.56,7.14 4.67,2.47 8.32,5.82 10.95,10.1 2.64,4.28 3.95,9.54 3.95,15.81 0,5.69 -1.57,11.02 -4.74,15.99 -3.17,4.97 -7.63,8.67 -13.4,11.07 -5.78,2.42 -12.99,3.63 -21.61,3.63 -12.55,0 -22.19,-2.89 -28.91,-8.69 -6.73,-5.78 -10.72,-14.21 -12.04,-25.28zm148.56 -67.12l20.11 0 0 53.8c0,8.55 0.26,14.08 0.74,16.59 0.86,4.07 2.87,7.35 6.05,9.8 3.21,2.47 7.58,3.7 13.13,3.7 5.62,0 9.87,-1.16 12.74,-3.49 2.86,-2.34 4.57,-5.18 5.15,-8.57 0.58,-3.4 0.88,-9.02 0.88,-16.87l0 -54.96 20.11 0 0 52.21c0,11.92 -0.53,20.36 -1.62,25.28 -1.09,4.93 -3.07,9.09 -5.99,12.48 -2.89,3.4 -6.77,6.08 -11.62,8.09 -4.88,2.01 -11.21,3.03 -19.04,3.03 -9.45,0 -16.62,-1.09 -21.5,-3.28 -4.88,-2.19 -8.74,-5.04 -11.58,-8.55 -2.84,-3.51 -4.69,-7.16 -5.59,-11.02 -1.31,-5.69 -1.96,-14.1 -1.96,-25.22l0 -53.02zm151.5 99.29l0 -98.46 20.11 0 0 81.68 49.79 0 0 16.78 -69.89 0zm224.39 0l-21.65 0 -8.57 -22.6 -39.82 0 -8.25 22.6 -21.26 0 38.55 -99.29 21.24 0 39.77 99.29zm-36.75 -39.38l-13.8 -36.75 -13.4 36.75 27.2 0zm104.23 39.38l-23.34 -99.29 20.66 0 14.77 68.21 18.12 -68.21 23.9 0 17.33 69.36 15.11 -69.36 20.18 0 -23.92 99.29 -21.47 0 -19.58 -74.24 -19.71 74.24 -22.05 0zm168.05 0l0 -99.29 73.5 0 0 16.78 -53.39 0 0 22.05 49.65 0 0 16.78 -49.65 0 0 26.9 55.33 0 0 16.78 -75.44 0zm138.02 -32.17l19.55 -1.94c1.18,6.54 3.54,11.32 7.12,14.4 3.58,3.08 8.41,4.6 14.49,4.6 6.43,0 11.28,-1.37 14.54,-4.09 3.26,-2.73 4.9,-5.92 4.9,-9.57 0,-2.36 -0.69,-4.35 -2.06,-6.01 -1.36,-1.64 -3.77,-3.07 -7.19,-4.27 -2.34,-0.83 -7.65,-2.27 -15.97,-4.35 -10.7,-2.68 -18.21,-5.96 -22.53,-9.87 -6.08,-5.48 -9.11,-12.16 -9.11,-20.04 0,-5.06 1.43,-9.82 4.27,-14.24 2.87,-4.42 6.98,-7.77 12.37,-10.08 5.38,-2.31 11.86,-3.47 19.48,-3.47 12.41,0 21.77,2.75 28.04,8.27 6.28,5.53 9.57,12.87 9.89,22.1l-20.11 0.69c-0.86,-5.13 -2.68,-8.81 -5.48,-11.05 -2.8,-2.24 -7,-3.37 -12.6,-3.37 -5.78,0 -10.31,1.2 -13.57,3.6 -2.1,1.55 -3.17,3.6 -3.17,6.19 0,2.36 0.99,4.37 2.98,6.03 2.52,2.15 8.64,4.37 18.37,6.68 9.73,2.29 16.92,4.69 21.56,7.14 4.67,2.47 8.32,5.82 10.95,10.1 2.64,4.28 3.95,9.54 3.95,15.81 0,5.69 -1.57,11.02 -4.74,15.99 -3.17,4.97 -7.63,8.67 -13.4,11.07 -5.78,2.42 -12.99,3.63 -21.61,3.63 -12.55,0 -22.19,-2.89 -28.91,-8.69 -6.73,-5.78 -10.72,-14.21 -12.04,-25.28zm147.87 32.17l0 -99.29 20.11 0 0 99.29 -20.11 0zm123.28 -32.17l19.55 -1.94c1.18,6.54 3.54,11.32 7.12,14.4 3.58,3.08 8.41,4.6 14.49,4.6 6.43,0 11.28,-1.37 14.54,-4.09 3.26,-2.73 4.9,-5.92 4.9,-9.57 0,-2.36 -0.69,-4.35 -2.06,-6.01 -1.36,-1.64 -3.77,-3.07 -7.19,-4.27 -2.34,-0.83 -7.65,-2.27 -15.97,-4.35 -10.7,-2.68 -18.21,-5.96 -22.53,-9.87 -6.08,-5.48 -9.11,-12.16 -9.11,-20.04 0,-5.06 1.43,-9.82 4.27,-14.24 2.87,-4.42 6.98,-7.77 12.37,-10.08 5.38,-2.31 11.86,-3.47 19.48,-3.47 12.41,0 21.77,2.75 28.04,8.27 6.28,5.53 9.57,12.87 9.89,22.1l-20.11 0.69c-0.86,-5.13 -2.68,-8.81 -5.48,-11.05 -2.8,-2.24 -7,-3.37 -12.6,-3.37 -5.78,0 -10.31,1.2 -13.57,3.6 -2.1,1.55 -3.17,3.6 -3.17,6.19 0,2.36 0.99,4.37 2.98,6.03 2.52,2.15 8.64,4.37 18.37,6.68 9.73,2.29 16.92,4.69 21.56,7.14 4.67,2.47 8.32,5.82 10.95,10.1 2.64,4.28 3.95,9.54 3.95,15.81 0,5.69 -1.57,11.02 -4.74,15.99 -3.17,4.97 -7.63,8.67 -13.4,11.07 -5.78,2.42 -12.99,3.63 -21.61,3.63 -12.55,0 -22.19,-2.89 -28.91,-8.69 -6.73,-5.78 -10.72,-14.21 -12.04,-25.28zm148.56 32.17l0 -99.29 73.5 0 0 16.78 -53.39 0 0 22.05 49.65 0 0 16.78 -49.65 0 0 26.9 55.33 0 0 16.78 -75.44 0zm143.85 0l0 -98.46 20.11 0 0 81.68 49.79 0 0 16.78 -69.89 0zm224.39 0l-21.65 0 -8.57 -22.6 -39.82 0 -8.25 22.6 -21.26 0 38.55 -99.29 21.24 0 39.77 99.29zm-36.75 -39.38l-13.8 -36.75 -13.4 36.75 27.2 0zm110.29 39.38l0 -82.51 -29.4 0 0 -16.78 78.77 0 0 16.78 -29.26 0 0 82.51 -20.11 0zm192.33 0l-21.65 0 -8.57 -22.6 -39.82 0 -8.25 22.6 -21.26 0 38.55 -99.29 21.24 0 39.77 99.29zm-36.75 -39.38l-13.8 -36.75 -13.4 36.75 27.2 0zm98.25 39.38l0 -99.29 19.46 0 40.86 66.54 0 -66.54 18.58 0 0 99.29 -20.08 0 -40.24 -65.27 0 65.27 -18.58 0z"/>
 </g>
</svg>
